<svg width="400" height="42" viewBox="0 0 400 42" fill="none" xmlns="http://www.w3.org/2000/svg">
<path d="M29.9837 0.751032H18.6691L0 41.1912H10.466L15.897 29.2325H32.6426L38.1302 41.1912H48.7093L29.9837 0.751032ZM24.2698 10.11L29.3614 21.2022H19.2348C20.8754 17.5048 22.6292 13.8074 24.2698 10.11Z" fill="white"/>
<path d="M82.2465 41.1912C90.7324 41.1912 96.4463 36.1651 96.4463 28.6547C96.4463 24.0908 94.0136 20.2779 90.4496 18.1403C92.1467 16.4649 93.3348 13.9807 93.3348 11.0922C93.3348 4.62174 88.1866 0.751032 80.4927 0.751032H55.0915V41.1912H82.2465ZM81.7373 23.3398C84.6225 23.3398 86.546 25.1884 86.546 28.2503C86.546 31.2545 84.6791 33.1032 81.7939 33.1032H64.7654V23.3398H81.7373ZM80.1533 8.89684C82.2465 8.89684 83.7174 10.0523 83.7174 12.1898C83.7174 14.2696 82.2465 15.3673 80.2664 15.3673H64.7654V8.89684H80.1533Z" fill="white"/>
<path d="M101.301 21.0289C101.301 34.3741 110.862 42 125.175 42C139.488 42 149.049 34.3741 149.049 21.0289C149.049 7.62586 139.488 0 125.175 0C110.862 0 101.301 7.62586 101.301 21.0289ZM125.175 8.72352C133.378 8.72352 139.205 12.9986 139.205 21.0289C139.205 29.0014 133.378 33.2765 125.175 33.2765C116.972 33.2765 111.201 29.0014 111.201 21.0289C111.201 12.9986 116.972 8.72352 125.175 8.72352Z" fill="white"/>
<path d="M187.066 22.5887C187.066 29.4058 182.371 33.2765 176.148 33.2765C169.529 33.2765 165.286 29.348 165.286 22.5887V0.751032H155.612V22.8198C155.612 35.1829 163.645 42 176.148 42C188.707 42 196.74 35.1829 196.74 22.8198V0.751032H187.066V22.5887Z" fill="white"/>
<path d="M245.094 9.53233V0.751032H201.533V9.53233H218.449V41.1912H228.122V9.53233H245.094Z" fill="white"/>
<path d="M305.866 9.53233V0.751032H262.305V9.53233H279.22V41.1912H288.894V9.53233H305.866Z" fill="white"/>
<path d="M343.389 41.1912H353.063V0.751032H343.389V13.4608H321.609V0.751032H311.935V41.1912H321.609V22.2421H343.389V41.1912Z" fill="white"/>
<path d="M400 41.1912V32.8143H374.259V22.9931H397.398V14.7895H374.259V9.1857H399.774V0.751032H364.585V41.1912H400Z" fill="white"/>
</svg>
